<?xml version="1.0" encoding="UTF-8"?>
<svg xmlns="http://www.w3.org/2000/svg" xmlns:xlink="http://www.w3.org/1999/xlink" viewBox="0 0 2074.96 463.14">
  <defs>
    <style>
      .cls-1 {
        fill: #06c;
      }

      .cls-1, .cls-2, .cls-3, .cls-4 {
        stroke-width: 0px;
      }

      .cls-2 {
        fill: #00ab2b;
      }

      .cls-3 {
        fill: url(#linear-gradient);
      }

      .cls-4 {
        fill: #000;
      }
    </style>
    <linearGradient id="linear-gradient" x1="0" y1="342.56" x2="2074.96" y2="342.56" gradientUnits="userSpaceOnUse">
      <stop offset="0" stop-color="#06c"/>
      <stop offset=".19" stop-color="#086bcd"/>
      <stop offset=".4" stop-color="#1975d1"/>
      <stop offset=".6" stop-color="#19b340"/>
      <stop offset=".81" stop-color="#08ad32"/>
      <stop offset="1" stop-color="#00ab2b"/>
    </linearGradient>
  </defs>
  <g id="Illustration">
    <g>
      <path class="cls-1" d="M1029.78,454.32c-23.62-3.73-46.72-8.72-70.17-12.53-8.3-1.26-33.26-5.45-42.03-6.89-15.71-2.73-39.94-5.64-56.07-8.07-214.4-28.55-433.03-26.56-646.12,11.33-7.68,1.46-34.07,5.89-41.93,7.72-13.21,2.76-28.66,5.92-41.99,8.39,8.79-3.67,17.68-7.08,26.55-10.64,5.12-1.93,15.27-5.95,20.06-7.73,11.31-3.82,22.67-7.54,34.01-11.22,256.65-80.1,567.45-68.42,817.69,29.63h0Z"/>
      <path class="cls-2" d="M1041.96,230.81c23.62,3.73,46.72,8.72,70.17,12.53,8.3,1.26,33.26,5.45,42.03,6.89,15.71,2.73,39.94,5.64,56.07,8.07,214.4,28.55,433.03,26.56,646.12-11.33,7.68-1.46,34.07-5.89,41.93-7.72,13.21-2.76,28.66-5.92,41.99-8.39-8.79,3.67-17.68,7.08-26.55,10.64-5.12,1.93-15.27,5.95-20.06,7.73-11.31,3.82-22.67,7.54-34.01,11.22-256.65,80.1-567.45,68.42-817.69-29.63h0Z"/>
      <path class="cls-3" d="M2074.96,265.57c-422.53,143.51-738.79,145.87-1157.22,9.92C612.76,171.63,256.76,218.64,0,419.56c422.52-143.51,738.78-145.87,1157.18-9.93,304.97,103.86,661,56.87,917.77-144.06Z"/>
    </g>
  </g>
  <g id="Text">
    <g>
      <path class="cls-4" d="M127.11,160.28V3.75h11.26v81.67L215.35,3.75h13.84l-59.14,63.13,67.12,93.4h-13.37l-61.96-84.95-23.47,25.11v59.84h-11.26Z"/>
      <path class="cls-4" d="M333.86,160.28h-10.09c-.15-2.19-.27-4.65-.35-7.39-.08-2.74-.12-6.3-.12-10.68-3.75,5.48-7.98,9.74-12.67,12.78-4.69,3.06-9.47,5.16-14.32,6.34-4.85,1.17-9.31,1.76-13.37,1.76-5.95,0-11.85-.9-17.72-2.7-5.86-1.8-10.72-5.05-14.55-9.74-3.84-4.69-5.75-11.26-5.75-19.71,0-7.04,1.56-13.37,4.69-19.01,3.13-5.63,8.13-10.13,15.02-13.49,6.89-3.37,15.96-5.05,27.22-5.05,6.58,0,12.44.24,17.6.71s9.54,1.02,13.14,1.64v-6.1c0-11.89-2.82-19.95-8.45-24.17-5.64-4.22-13.77-6.34-24.41-6.34-8.92,0-16,1.29-21.24,3.87-5.24,2.59-9.26,5.05-12.09,7.4l-5.63-7.28c2.97-2.81,7.78-5.78,14.43-8.91,6.65-3.13,14.75-4.69,24.29-4.69,13.93,0,24.68,2.97,32.27,8.92,7.58,5.95,11.38,15.8,11.38,29.56v58.55c0,2.74.08,5.13.24,7.16l.47,6.57ZM322.83,120.39v-15.25c-3.29-.78-7.4-1.45-12.32-2-4.93-.55-11.23-.82-18.9-.82s-14.31.97-19.01,2.93c-4.69,1.96-8.26,4.42-10.68,7.39-2.43,2.97-3.99,6.1-4.69,9.39-.71,3.28-1.06,6.26-1.06,8.91,0,7.83,2.62,13.54,7.86,17.13,5.24,3.6,11.93,5.4,20.06,5.4,7.2,0,13.69-1.6,19.48-4.81s10.45-7.35,13.97-12.44c3.52-5.08,5.28-10.36,5.28-15.84Z"/>
      <path class="cls-4" d="M361.08,160.28V61.72c0-2.82-.16-5.95-.47-9.39h9.85c.32,3.44.51,6.53.59,9.27s.12,7.16.12,13.25c1.72-3.28,4.3-6.88,7.74-10.79,3.44-3.91,7.98-7.31,13.61-10.21,5.63-2.9,12.51-4.34,20.65-4.34,15.33,0,26.05,4.27,32.15,12.79,6.1,8.53,9.15,20.06,9.15,34.61v63.36h-10.56v-59.84c0-10.79-1.25-19.16-3.75-25.11-2.5-5.94-6.14-10.09-10.91-12.44-4.78-2.34-10.61-3.52-17.49-3.52-9.07,0-16.59,2.35-22.53,7.05-5.95,4.69-10.37,10.52-13.26,17.48-2.9,6.96-4.34,13.89-4.34,20.77v55.62h-10.56Z"/>
      <path class="cls-4" d="M481.69,160.28V61.72c0-2.82-.16-5.95-.47-9.39h9.85c.32,3.44.51,6.53.59,9.27s.12,7.16.12,13.25c1.72-3.28,4.3-6.88,7.74-10.79,3.44-3.91,7.98-7.31,13.61-10.21,5.63-2.9,12.51-4.34,20.65-4.34,15.33,0,26.05,4.27,32.15,12.79,6.1,8.53,9.15,20.06,9.15,34.61v63.36h-10.56v-59.84c0-10.79-1.25-19.16-3.75-25.11-2.5-5.94-6.14-10.09-10.91-12.44-4.78-2.34-10.61-3.52-17.49-3.52-9.07,0-16.59,2.35-22.53,7.05-5.95,4.69-10.37,10.52-13.26,17.48-2.9,6.96-4.34,13.89-4.34,20.77v55.62h-10.56Z"/>
      <path class="cls-4" d="M687.97,137.76l7.51,6.33c-4.69,5.79-11.07,10.41-19.12,13.85-8.05,3.44-16.31,5.16-24.76,5.16-10.64,0-20.14-2.39-28.51-7.16-8.37-4.77-14.91-11.46-19.59-20.06-4.69-8.6-7.05-18.46-7.05-29.56,0-10.48,2.19-20.03,6.58-28.63,4.38-8.6,10.52-15.45,18.42-20.54,7.9-5.08,16.93-7.63,27.1-7.63s18.7,2.27,26.52,6.8c7.82,4.54,13.96,11.23,18.42,20.06,4.46,8.84,6.69,19.75,6.69,32.74h-91.99c.31,8.14,2.31,15.53,5.99,22.17,3.67,6.65,8.72,11.97,15.14,15.96,6.42,3.99,13.85,5.99,22.29,5.99,6.73,0,13.57-1.41,20.54-4.22s12.24-6.58,15.84-11.26ZM608.42,99.97h80.26c-1.41-13.14-5.67-23.19-12.79-30.15-7.12-6.96-16.23-10.45-27.34-10.45-7.67,0-14.43,1.85-20.3,5.52-5.86,3.68-10.52,8.57-13.96,14.66-3.44,6.11-5.4,12.91-5.87,20.42Z"/>
      <path class="cls-4" d="M722.46,160.28V3.75h10.56v156.53h-10.56Z"/>
      <path class="cls-4" d="M722.24,198.77l5.63-7.74c2.66,2.35,5.21,4.07,7.63,5.16,2.43,1.09,5.13,1.65,8.1,1.65,3.13,0,6.02-.79,8.68-2.35,2.66-1.56,4.81-4.69,6.45-9.38,1.65-4.69,2.47-11.66,2.47-20.89V52.33h10.56v111.23c0,9.07-.75,16.86-2.23,23.35-1.49,6.49-4.31,11.5-8.45,15.02-4.15,3.52-10.13,5.28-17.96,5.28-4.54,0-8.64-.9-12.32-2.7-3.67-1.8-6.53-3.72-8.56-5.75ZM759.07,29.81v-15.49h14.79v15.49h-14.79Z"/>
      <path class="cls-4" d="M883.92,160.28h-10.09c-.15-2.19-.27-4.65-.35-7.39-.08-2.74-.12-6.3-.12-10.68-3.75,5.48-7.98,9.74-12.67,12.78-4.69,3.06-9.47,5.16-14.32,6.34-4.85,1.17-9.31,1.76-13.37,1.76-5.95,0-11.85-.9-17.72-2.7-5.86-1.8-10.72-5.05-14.55-9.74-3.84-4.69-5.75-11.26-5.75-19.71,0-7.04,1.56-13.37,4.69-19.01,3.13-5.63,8.13-10.13,15.02-13.49,6.89-3.37,15.96-5.05,27.22-5.05,6.58,0,12.44.24,17.6.71s9.54,1.02,13.14,1.64v-6.1c0-11.89-2.82-19.95-8.45-24.17-5.64-4.22-13.77-6.34-24.41-6.34-8.92,0-16,1.29-21.24,3.87-5.24,2.59-9.26,5.05-12.09,7.4l-5.63-7.28c2.97-2.81,7.78-5.78,14.43-8.91,6.65-3.13,14.75-4.69,24.29-4.69,13.93,0,24.68,2.97,32.27,8.92,7.58,5.95,11.38,15.8,11.38,29.56v58.55c0,2.74.08,5.13.24,7.16l.47,6.57ZM872.9,120.39v-15.25c-3.29-.78-7.4-1.45-12.32-2-4.93-.55-11.23-.82-18.9-.82s-14.31.97-19.01,2.93c-4.69,1.96-8.26,4.42-10.68,7.39-2.43,2.97-3.99,6.1-4.69,9.39-.71,3.28-1.06,6.26-1.06,8.91,0,7.83,2.62,13.54,7.86,17.13,5.24,3.6,11.93,5.4,20.06,5.4,7.2,0,13.69-1.6,19.48-4.81s10.45-7.35,13.97-12.44c3.52-5.08,5.28-10.36,5.28-15.84ZM816.1,27.69v-14.78h14.08v14.78h-14.08ZM850.83,27.69v-14.78h14.08v14.78h-14.08Z"/>
      <path class="cls-4" d="M911.14,160.28V61.72c0-2.82-.16-5.95-.47-9.39h9.85c.32,3.44.51,6.73.59,9.86s.12,7.74.12,13.84c1.72-3.28,4.22-6.84,7.51-10.68,3.29-3.83,7.59-7.16,12.91-9.98,5.32-2.81,11.81-4.22,19.48-4.22,3.44,0,6.42.55,8.92,1.65l-3.05,10.09c-1.1-.46-2.39-.77-3.87-.93-1.49-.16-2.86-.24-4.11-.24-7.36,0-13.85,2.11-19.48,6.33-5.64,4.22-10.02,9.67-13.14,16.31-3.13,6.65-4.69,13.57-4.69,20.77v55.15h-10.56Z"/>
      <path class="cls-4" d="M1026.6,160.28l-47.18-107.95h11.97l40.6,95.04,40.36-95.04h11.03l-46.93,107.95h-9.85Z"/>
      <path class="cls-4" d="M1178.66,137.76l7.51,6.33c-4.69,5.79-11.07,10.41-19.12,13.85-8.05,3.44-16.31,5.16-24.76,5.16-10.64,0-20.14-2.39-28.51-7.16-8.37-4.77-14.91-11.46-19.59-20.06-4.69-8.6-7.05-18.46-7.05-29.56,0-10.48,2.19-20.03,6.58-28.63,4.38-8.6,10.52-15.45,18.42-20.54,7.9-5.08,16.93-7.63,27.1-7.63s18.7,2.27,26.52,6.8c7.82,4.54,13.96,11.23,18.42,20.06,4.46,8.84,6.69,19.75,6.69,32.74h-91.99c.31,8.14,2.31,15.53,5.99,22.17,3.67,6.65,8.72,11.97,15.14,15.96,6.42,3.99,13.85,5.99,22.29,5.99,6.73,0,13.57-1.41,20.54-4.22s12.24-6.58,15.84-11.26ZM1099.11,99.97h80.26c-1.41-13.14-5.67-23.19-12.79-30.15-7.12-6.96-16.23-10.45-27.34-10.45-7.67,0-14.43,1.85-20.3,5.52-5.86,3.68-10.52,8.57-13.96,14.66-3.44,6.11-5.4,12.91-5.87,20.42Z"/>
      <path class="cls-4" d="M1213.63,160.28V61.72c0-2.82-.16-5.95-.47-9.39h9.85c.32,3.44.51,6.53.59,9.27.08,2.74.12,7.16.12,13.25,1.72-3.28,4.3-6.88,7.74-10.79,3.44-3.91,7.98-7.31,13.61-10.21,5.63-2.9,12.51-4.34,20.65-4.34,15.33,0,26.05,4.27,32.15,12.79,6.1,8.53,9.15,20.06,9.15,34.61v63.36h-10.56v-59.84c0-10.79-1.25-19.16-3.75-25.11-2.5-5.94-6.14-10.09-10.91-12.44-4.78-2.34-10.61-3.52-17.49-3.52-9.07,0-16.59,2.35-22.53,7.05-5.95,4.69-10.37,10.52-13.26,17.48-2.9,6.96-4.34,13.89-4.34,20.77v55.62h-10.56Z"/>
      <path class="cls-4" d="M1446.19,164.04c-11.26,0-21.63-2.07-31.09-6.22-9.47-4.15-17.68-9.98-24.64-17.49-6.96-7.51-12.36-16.23-16.19-26.16-3.83-9.94-5.75-20.61-5.75-32.03s1.92-22.33,5.75-32.27c3.83-9.94,9.23-18.62,16.19-26.05,6.96-7.43,15.18-13.25,24.64-17.48,9.47-4.22,19.83-6.34,31.09-6.34s21.63,2.12,31.09,6.34c9.47,4.22,17.68,10.05,24.64,17.48,6.96,7.43,12.36,16.12,16.19,26.05,3.83,9.94,5.75,20.69,5.75,32.27s-1.92,22.1-5.75,32.03c-3.84,9.94-9.23,18.65-16.19,26.16-6.96,7.51-15.18,13.34-24.64,17.49-9.47,4.14-19.83,6.22-31.09,6.22ZM1446.19,153.48c13.3,0,24.84-3.21,34.61-9.62,9.78-6.41,17.4-15.02,22.89-25.81,5.47-10.8,8.21-22.77,8.21-35.91s-2.74-25.35-8.21-36.14c-5.48-10.8-13.11-19.4-22.89-25.82-9.78-6.41-21.32-9.62-34.61-9.62s-24.64,3.21-34.49,9.62c-9.86,6.42-17.53,15.02-23,25.82-5.48,10.79-8.21,22.84-8.21,36.14s2.73,25.11,8.21,35.91c5.47,10.79,13.14,19.4,23,25.81,9.85,6.42,21.35,9.62,34.49,9.62Z"/>
      <path class="cls-4" d="M1548.97,207.22V61.72c0-2.82-.16-5.95-.47-9.39h9.85c.32,3.28.55,6.18.71,8.68s.24,6.26.24,11.26c.78-1.41,2.07-3.32,3.87-5.75,1.8-2.43,4.22-4.96,7.27-7.63,3.06-2.66,6.96-4.88,11.73-6.69,4.77-1.8,10.45-2.7,17.02-2.7,11.11,0,20.26,2.54,27.46,7.63s12.51,11.97,15.96,20.65c3.44,8.68,5.16,18.42,5.16,29.21s-2.39,21.09-7.16,29.45c-4.78,8.37-11.26,14.9-19.48,19.59-8.21,4.69-17.57,7.04-28.04,7.04-7.67,0-14.24-1.09-19.71-3.28-5.48-2.18-10.17-4.3-14.08-6.33v53.74h-10.32ZM1559.3,107.72v33.8c1.41,1.09,3.56,2.58,6.46,4.46,2.89,1.87,6.6,3.56,11.15,5.04,4.54,1.49,9.93,2.23,16.19,2.23,7.98,0,15.25-1.8,21.82-5.4,6.58-3.6,11.81-8.84,15.72-15.72,3.91-6.88,5.87-15.25,5.87-25.11,0-8.44-1.26-16.31-3.75-23.58-2.5-7.27-6.58-13.1-12.2-17.48-5.64-4.38-13.14-6.58-22.53-6.58s-17.05,2.63-23,7.86c-5.95,5.25-10.25,11.39-12.9,18.43-1.1,2.81-1.85,6.18-2.23,10.09-.39,3.91-.59,7.9-.59,11.97Z"/>
      <path class="cls-4" d="M1668.42,29.81v-15.49h14.79v15.49h-14.79ZM1670.53,160.28V52.33h10.56v107.95h-10.56Z"/>
      <path class="cls-4" d="M1702.68,146.67l6.8-7.51c4.54,4.54,9.74,8.02,15.61,10.45,5.86,2.43,12.79,3.64,20.77,3.64,5.79,0,11.15-.74,16.08-2.23,4.92-1.48,8.88-3.71,11.85-6.69,2.97-2.97,4.46-6.73,4.46-11.26,0-5.32-1.38-9.35-4.11-12.09-2.74-2.74-6.85-4.93-12.32-6.57-5.48-1.65-12.2-3.41-20.18-5.28-6.58-1.56-12.4-3.4-17.49-5.52-5.08-2.11-9.11-5.12-12.09-9.03-2.97-3.91-4.46-9.15-4.46-15.73s1.88-12.04,5.64-16.42c3.75-4.38,8.64-7.63,14.66-9.74,6.02-2.11,12.47-3.17,19.36-3.17,8.29,0,15.72,1.56,22.3,4.69,6.57,3.13,11.89,7.12,15.96,11.97l-7.27,6.57c-3.75-4.07-8.1-7.35-13.03-9.86-4.93-2.5-10.83-3.75-17.72-3.75-4.54,0-9.03.51-13.49,1.53-4.46,1.02-8.18,2.97-11.15,5.87-2.98,2.9-4.46,7.16-4.46,12.78,0,4.54,1.64,8.14,4.92,10.8,3.29,2.66,7.51,4.77,12.67,6.33,5.16,1.57,10.48,2.97,15.96,4.22,5.95,1.25,11.81,2.93,17.6,5.05,5.79,2.11,10.59,5.16,14.43,9.15,3.83,3.99,5.75,9.59,5.75,16.78s-2.12,13.14-6.34,17.84c-4.22,4.69-9.62,8.14-16.19,10.32-6.57,2.19-13.37,3.28-20.42,3.28-10.01,0-18.62-1.49-25.81-4.46-7.2-2.97-13.3-6.96-18.3-11.97Z"/>
      <path class="cls-4" d="M1822.6,127.19V62.19h-21.59v-9.86h21.59V16.66h10.56v35.67h35.67v9.86h-35.67v62.42c0,8.45.86,14.75,2.58,18.89,1.72,4.15,4.03,6.85,6.92,8.1,2.9,1.26,6.22,1.88,9.98,1.88s7.27-.71,10.09-2.12c2.82-1.4,5.64-3.83,8.45-7.27l6.58,6.33c-3.13,4.07-6.69,7.2-10.68,9.39-3.99,2.19-9.19,3.28-15.61,3.28-5.63,0-10.64-1.02-15.02-3.05-4.38-2.03-7.79-5.64-10.21-10.79-2.43-5.16-3.64-12.51-3.64-22.06Z"/>
      <path class="cls-4" d="M1935.94,163.1c-10.17,0-19.48-2.54-27.93-7.63-8.45-5.08-15.18-11.93-20.18-20.54-5.01-8.6-7.51-18.14-7.51-28.62s2.5-20.03,7.51-28.63c5.01-8.6,11.73-15.45,20.18-20.54,8.45-5.08,17.76-7.63,27.93-7.63s19.68,2.54,28.04,7.63c8.37,5.08,15.06,11.93,20.06,20.54,5.01,8.6,7.51,18.15,7.51,28.63s-2.5,20.02-7.51,28.62c-5.01,8.61-11.7,15.45-20.06,20.54s-17.71,7.63-28.04,7.63ZM1935.94,153.48c8.45,0,16.03-2.12,22.77-6.34,6.72-4.22,12.04-9.93,15.96-17.13,3.91-7.2,5.86-15.1,5.86-23.7s-1.99-16.23-5.98-23.36c-3.99-7.11-9.35-12.86-16.08-17.24-6.73-4.38-14.24-6.58-22.53-6.58s-16.03,2.12-22.76,6.34c-6.73,4.22-12.05,9.89-15.96,17.02-3.91,7.11-5.86,15.06-5.86,23.82s1.99,16.23,5.98,23.35c3.99,7.12,9.39,12.87,16.19,17.24,6.8,4.38,14.28,6.58,22.41,6.58Z"/>
    </g>
  </g>
</svg>